<?xml version="1.0" encoding="iso-8859-1"?>
<!-- Uploaded to: SVG Repo, www.svgrepo.com, Generator: SVG Repo Mixer Tools -->
<svg height="800px" width="800px" version="1.1" id="Layer_1" xmlns="http://www.w3.org/2000/svg" xmlns:xlink="http://www.w3.org/1999/xlink" 
	 viewBox="0 0 508.4 508.4" xml:space="preserve">
<g>
	<path style="fill:#ACD9EA;" d="M464.8,373.8c8.8,0,17.2-4,23.6-9.6l-177.2-144c-0.8-0.8-0.8-2-0.4-3.2c0.8-0.8,2-1.2,2.8-0.4
		l177.6,143.6c6.8-6.8,10.8-16.4,10.8-26.8v-270c0-10.4-4-19.6-10.8-26.8L255.6,227.4c-0.4,0.4-0.8,0.4-1.2,0.4s-0.8,0-1.2-0.4
		L17.2,36.6C10.4,43.4,6,53,6,63.4v270c0,10.4,4.4,19.6,11.2,26.8l177.6-143.6c0.8-0.8,2-0.4,2.8,0.4s0.4,2-0.4,2.8L20,364.2
		c6.4,5.2,14.8,9.6,23.6,9.6L464.8,373.8L464.8,373.8z"/>
	<path style="fill:#ACD9EA;" d="M464.8,25.8H44c-8.8,0-17.2,4-23.6,8l0,0l234,190l234-189.2v-0.4C482,29,474,25.8,464.8,25.8z"/>
</g>
<path style="fill:#CDEEF9;" d="M464.8,25.8h-34L254.4,171L75.6,25.8H44c-8.8,0-17.2,4-23.6,8l0,0l234,190l234-189.2v-0.4
	C482,29,474,25.8,464.8,25.8z"/>
<circle style="fill:#DF5C4E;" cx="254.8" cy="373.8" r="108.8"/>
<path d="M464.8,379.8h-98.4c-2.4,0-4-1.6-4-4s1.6-4,4-4h98.4c18.8,0,35.6-17.6,35.6-37.6v-270c0-19.6-16.4-36.4-35.6-36.4H44
	c-19.6,0-36,16.8-36,36.4v270c0,20,16.8,37.6,36,37.6h98c2.4,0,4,1.6,4,4s-1.6,4-4,4H44c-23.2,0-44-21.2-44-45.6v-270
	c0-24,20-44.4,44-44.4h420.8c24,0,43.6,20,43.6,44.4v270C508.4,359,488.4,379.8,464.8,379.8z"/>
<path d="M17.6,367.4c-1.2,0-2.4-0.4-3.2-1.6c-1.2-1.6-1.2-4.4,0.4-5.6l178.8-144.8c1.6-1.2,4.4-1.2,5.6,0.4c1.2,1.6,1.2,4.4-0.4,5.6
	L20,366.2C19.2,367,18.4,367.4,17.6,367.4z"/>
<path d="M491.6,367.4c-0.8,0-1.6-0.4-2.4-0.8L310.4,221.8c-1.6-1.2-2-4-0.4-5.6c1.2-1.6,4-2,5.6-0.4l178.8,144.8
	c1.6,1.2,2,4,0.4,5.6C494,366.6,492.8,367.4,491.6,367.4z"/>
<path d="M254.4,231c-0.8,0-1.6-0.4-2.4-0.8L14.8,38.2c-1.6-1.2-2-4-0.4-5.6c1.2-1.6,4-2,5.6-0.4l234.4,189.6L487.2,33.4
	c1.6-1.2,4.4-1.2,5.6,0.4s1.2,4.4-0.4,5.6L257.2,229.8C256.4,230.6,255.6,231,254.4,231z"/>
<path d="M254.4,175.8c-0.8,0-1.6-0.4-2.4-0.8L71.6,29.4c-1.6-1.2-2-4-0.4-5.6c1.2-1.6,4-2,5.6-0.4L254.4,167l22-17.6
	c1.6-1.2,4.4-1.2,5.6,0.4c1.2,1.6,1.2,4.4-0.4,5.6L257.2,175C256.4,175.4,255.6,175.8,254.4,175.8z"/>
<path d="M310,131c-1.2,0-2.4-0.4-3.2-1.6c-1.2-1.6-1.2-4.4,0.4-5.6l123.6-100c1.6-1.2,4.4-1.2,5.6,0.4c1.2,1.6,1.2,4.4-0.4,5.6
	l-123.6,100C311.6,131,310.8,131,310,131z"/>
<path d="M254.4,488.6c-63.2,0-114.8-51.6-114.8-114.8S191.2,259,254.4,259c22,0,43.6,6.4,62,18.4c2,1.2,2.4,3.6,1.2,5.6
	s-3.6,2.4-5.6,1.2c-17.2-11.2-37.2-16.8-57.6-16.8c-58.8,0-106.8,48-106.8,106.8S195.6,481,254.4,481s106.8-48,106.8-106.8
	c0-23.2-7.2-45.2-21.2-63.6c-1.2-1.6-0.8-4.4,0.8-5.6s4.4-0.8,5.6,0.8c14.8,20,22.8,43.6,22.8,68.4C369.6,437,318,488.6,254.4,488.6
	z"/>
<path d="M292.4,415.4c-1.2,0-2-0.4-2.8-1.2L214,338.6c-1.6-1.6-1.6-4,0-5.6s4-1.6,5.6,0l75.6,75.6c1.6,1.6,1.6,4,0,5.6
	C294.4,415,293.2,415.4,292.4,415.4z"/>
<path d="M216.8,415.4c-1.2,0-2-0.4-2.8-1.2c-1.6-1.6-1.6-4,0-5.6l75.6-75.6c1.6-1.6,4-1.6,5.6,0s1.6,4,0,5.6l-75.6,75.6
	C218.8,415,217.6,415.4,216.8,415.4z"/>
</svg>